<?xml version="1.0" encoding="UTF-8"?>
<svg xmlns="http://www.w3.org/2000/svg" xmlns:xlink="http://www.w3.org/1999/xlink" viewBox="0 0 117.49 117.47">
  <defs>
    <style>
      .cls-1 {
        fill: #646768;
      }

      .cls-2 {
        fill: #dadcdc;
      }

      .cls-3 {
        fill: #78787b;
      }

      .cls-4 {
        fill: #ead3c6;
      }

      .cls-5 {
        clip-path: url(#clippath-4);
      }

      .cls-6 {
        fill: #8f8d92;
        opacity: .45;
      }

      .cls-6, .cls-7, .cls-8 {
        mix-blend-mode: multiply;
      }

      .cls-9 {
        fill: #58371b;
      }

      .cls-10 {
        fill: url(#radial-gradient-2);
      }

      .cls-10, .cls-11, .cls-12, .cls-13 {
        fill-rule: evenodd;
      }

      .cls-14 {
        fill: #fff;
      }

      .cls-15 {
        fill: #717478;
      }

      .cls-16 {
        fill: url(#Degradado_sin_nombre_3-3);
      }

      .cls-17 {
        fill: none;
      }

      .cls-7 {
        fill: #cab3a4;
      }

      .cls-18 {
        fill: url(#Degradado_sin_nombre_3-5);
      }

      .cls-19 {
        clip-path: url(#clippath-1);
      }

      .cls-20 {
        fill: url(#Degradado_sin_nombre_3-2);
      }

      .cls-21 {
        isolation: isolate;
      }

      .cls-22 {
        clip-path: url(#clippath-5);
      }

      .cls-23 {
        fill: #e6e6e5;
      }

      .cls-24 {
        clip-path: url(#clippath-3);
      }

      .cls-25 {
        fill: #a7173c;
      }

      .cls-26 {
        fill: url(#Degradado_sin_nombre_3-6);
      }

      .cls-27 {
        fill: url(#Degradado_sin_nombre_3);
      }

      .cls-8 {
        fill: #6a6b6b;
      }

      .cls-28 {
        fill: #8c6548;
      }

      .cls-29 {
        fill: #020303;
      }

      .cls-30 {
        clip-path: url(#clippath-2);
      }

      .cls-31 {
        fill: #9d989d;
      }

      .cls-32 {
        fill: url(#Degradado_sin_nombre_3-4);
      }

      .cls-11 {
        fill: url(#Degradado_sin_nombre_12);
      }

      .cls-12 {
        fill: url(#radial-gradient);
      }

      .cls-13 {
        fill: url(#Degradado_sin_nombre_9);
      }

      .cls-33 {
        fill: #808181;
      }

      .cls-34 {
        clip-path: url(#clippath);
      }
    </style>
    <linearGradient id="Degradado_sin_nombre_12" data-name="Degradado sin nombre 12" x1="0" y1="58.74" x2="117.49" y2="58.74" gradientUnits="userSpaceOnUse">
      <stop offset="0" stop-color="#b6b3b3"/>
      <stop offset=".09" stop-color="#bebbbb"/>
      <stop offset=".48" stop-color="#e1e0e0"/>
      <stop offset=".8" stop-color="#f7f6f6"/>
      <stop offset="1" stop-color="#fff"/>
    </linearGradient>
    <radialGradient id="Degradado_sin_nombre_9" data-name="Degradado sin nombre 9" cx="58.74" cy="58.74" fx="58.74" fy="58.74" r="56.69" gradientUnits="userSpaceOnUse">
      <stop offset="0" stop-color="#162a44"/>
      <stop offset="0" stop-color="#152a45"/>
      <stop offset=".05" stop-color="#0e3a5e"/>
      <stop offset=".11" stop-color="#094671"/>
      <stop offset=".18" stop-color="#054f7f"/>
      <stop offset=".26" stop-color="#035487"/>
      <stop offset=".41" stop-color="#03568a"/>
    </radialGradient>
    <radialGradient id="radial-gradient" cx="58.74" cy="58.74" fx="58.74" fy="58.74" r="56.05" gradientUnits="userSpaceOnUse">
      <stop offset=".59" stop-color="#03568a"/>
      <stop offset=".75" stop-color="#035487"/>
      <stop offset=".84" stop-color="#044f7f"/>
      <stop offset=".92" stop-color="#064771"/>
      <stop offset=".98" stop-color="#093c5e"/>
      <stop offset="1" stop-color="#0a3958"/>
    </radialGradient>
    <radialGradient id="radial-gradient-2" cx="58.74" cy="58.74" fx="58.74" fy="58.74" r="41.72" gradientUnits="userSpaceOnUse">
      <stop offset="0" stop-color="#b32040"/>
      <stop offset=".43" stop-color="#b01f3e"/>
      <stop offset=".72" stop-color="#a71c39"/>
      <stop offset=".97" stop-color="#981732"/>
      <stop offset="1" stop-color="#961731"/>
    </radialGradient>
    <clipPath id="clippath">
      <path class="cls-17" d="M70.94,60.69c-8.23.47-16.48.47-24.72,0-.63-.04-1.01-.71-.72-1.27,1.43-2.74,2.85-5.48,4.28-8.21.34-.65,1.03-1.04,1.77-1,4.69.25,9.38.25,14.07,0,.74-.04,1.43.35,1.77,1,1.43,2.74,2.85,5.48,4.28,8.21.29.56-.09,1.24-.72,1.27Z"/>
    </clipPath>
    <clipPath id="clippath-1">
      <path class="cls-17" d="M58.3,55.71c0,.1,0,.19-.02.28-3.11,1.73-8.19,1.74-9.2,1.73l3.21-10.56,6.02,1.4v2.12l-.02,5.03Z"/>
    </clipPath>
    <clipPath id="clippath-2">
      <path class="cls-17" d="M56.1,58.55c-2.82.73-5.91.72-6.57.71v-1.27c1.59,0,5.86-.18,8.7-1.67-.23,1.07-1.04,1.94-2.13,2.23Z"/>
    </clipPath>
    <clipPath id="clippath-3">
      <path class="cls-17" d="M58.85,50.69v-2.12s6.02-1.4,6.02-1.4l3.21,10.56c-1,.02-6.09,0-9.2-1.73,0-.09-.02-.19-.02-.28l-.02-5.03Z"/>
    </clipPath>
    <clipPath id="clippath-4">
      <path class="cls-17" d="M58.94,56.33c2.84,1.49,7.11,1.66,8.7,1.67v1.27c-.66.01-3.75.03-6.57-.71-1.09-.28-1.9-1.16-2.13-2.23Z"/>
    </clipPath>
    <clipPath id="clippath-5">
      <path class="cls-17" d="M61.91,44.68c.08,0,.11.11.03.14-.42.22-.7.65-.7,1.15v1.24c0,.09.07.16.16.16h0c.16,0,.28.13.28.28v.53l-.53.81-2.05,9.05c-.12.55-.91.55-1.03,0l-2.05-9.05-.53-.81v-.53c0-.16.13-.28.28-.28h0c.09,0,.16-.07.16-.16v-1.24c0-.5-.29-.94-.7-1.15-.07-.04-.05-.14.03-.14h6.64Z"/>
    </clipPath>
    <linearGradient id="Degradado_sin_nombre_3" data-name="Degradado sin nombre 3" x1="59.01" y1="43.15" x2="59.01" y2="30.02" gradientUnits="userSpaceOnUse">
      <stop offset="0" stop-color="#ba2b1c"/>
      <stop offset=".06" stop-color="#bd3f19"/>
      <stop offset=".17" stop-color="#c46b15"/>
      <stop offset=".49" stop-color="#d08b0a"/>
      <stop offset=".52" stop-color="#d08e12"/>
      <stop offset=".64" stop-color="#d3982d"/>
      <stop offset=".75" stop-color="#d5a040"/>
      <stop offset=".87" stop-color="#d6a44c"/>
      <stop offset="1" stop-color="#d7a650"/>
    </linearGradient>
    <linearGradient id="Degradado_sin_nombre_3-2" data-name="Degradado sin nombre 3" x1="60.77" y1="39.78" x2="60.77" y2="35.19" xlink:href="#Degradado_sin_nombre_3"/>
    <linearGradient id="Degradado_sin_nombre_3-3" data-name="Degradado sin nombre 3" x1="56.36" y1="42" x2="56.36" y2="34.88" xlink:href="#Degradado_sin_nombre_3"/>
    <linearGradient id="Degradado_sin_nombre_3-4" data-name="Degradado sin nombre 3" x1="56.56" y1="39.84" x2="56.56" y2="35.13" xlink:href="#Degradado_sin_nombre_3"/>
    <linearGradient id="Degradado_sin_nombre_3-5" data-name="Degradado sin nombre 3" x1="60.77" y1="43.05" x2="60.77" y2="40.06" xlink:href="#Degradado_sin_nombre_3"/>
    <linearGradient id="Degradado_sin_nombre_3-6" data-name="Degradado sin nombre 3" x1="57.03" y1="43.15" x2="57.03" y2="37.93" xlink:href="#Degradado_sin_nombre_3"/>
  </defs>
  <g class="cls-21">
    <g id="Capa_2" data-name="Capa 2">
      <g id="Capa_1-2" data-name="Capa 1">
        <g>
          <path class="cls-11" d="M58.75,0c32.44,0,58.74,26.3,58.74,58.75s-26.3,58.72-58.74,58.72S0,91.18,0,58.75,26.3,0,58.75,0Z"/>
          <path class="cls-13" d="M58.75,2.05c31.31,0,56.69,25.39,56.69,56.71s-25.38,56.67-56.69,56.67S2.05,90.05,2.05,58.75,27.43,2.05,58.75,2.05Z"/>
          <path class="cls-12" d="M58.75,2.68c30.96,0,56.05,25.1,56.05,56.07s-25.1,56.03-56.05,56.03S2.69,89.7,2.69,58.75,27.78,2.68,58.75,2.68Z"/>
          <path class="cls-10" d="M58.75,17.02c23.04,0,41.72,18.69,41.72,41.74s-18.68,41.69-41.72,41.69-41.73-18.67-41.73-41.69S35.7,17.02,58.75,17.02Z"/>
          <path class="cls-14" d="M58.75,101.25c-23.45,0-42.52-19.06-42.52-42.48S35.3,16.22,58.75,16.22s42.51,19.08,42.51,42.54-19.07,42.48-42.51,42.48ZM58.75,17.81c-22.57,0-40.94,18.37-40.94,40.95s18.36,40.9,40.94,40.9,40.93-18.35,40.93-40.9-18.36-40.95-40.93-40.95Z"/>
          <g>
            <g>
              <path class="cls-4" d="M89.88,45.04c-.38.29-3.94,3.2-4.63,4.59-.19.38-.47.73-.85,1.05-.74.62-1.6,1.02-2.79,1.56-.44.2-.92.42-1.45.68-.87.43-2.13.19-3.08,0-.12-.03-.2-.04-.23-.05h0c-.08-.02-.17-.03-.24-.05-.11-.02-.21.05-.23.16-.02.11.05.21.16.23.13.02.26.05.41.08,0,0,.01,0,.02,0,.4.09,1.07.32,1.19.69-.57.84-1.12,1.76-1.61,2.59-.59.61-1.34,1.33-1.66,1.62-.92-2.19-1.02-3.89-.98-5.1.03-.03.04-.07.05-.11.05-.8,1.08-4.83,1.11-4.97.2-.53.49-1.04.96-1.52.38-.39.47-.72.57-1.22l.29-1.4c.06-.28.34-.69.59-.85.68-.44,1.18-1.11,1.57-1.65.33-.44.64-.86.79-.75.12.09.19.27.2.51.02.6-.38,1.59-1.29,2.34-.11.09-.17.23-.15.38.01.1.03.19.05.3.05.28.11.59.03,1.02h0s0,.09,0,.09c0,0-.02.42-.24,1.2-.02.07-.04.15-.06.22-.09.3-.21.66-.36,1.06-.04.1.01.22.12.26.02,0,.05.01.07.01.08,0,.16-.05.19-.13.15-.4.27-.75.36-1.06,0,0,0,0,0,0,0-.02.01-.05.02-.07.02-.06.04-.13.05-.18.37-1.1,1.47-1.94,1.53-1.99.61-.37,1.27-.79,1.67-1.16.13-.12.28-.22.49-.33.78-.4,2.36-1.41,4.69-3.02l.32-.22c.52-.36.91-.59,1.21-.31.06.05.08.11.08.19,0,.3-.38.75-.51.88,0,0,0,0,0,0-.34.26-1.31.96-2.27,1.65-.16.09-2.29,1.32-2.53,1.46-.18.11-.19.24-.18.31.03.19.25.26.36.28.01,0,.03,0,.04,0,.1,0,.38-.19,2.44-1.67,2.34-1.67,2.48-1.8,2.53-1.84.97-.87,1.55-1.15,1.83-.88.07.07.11.16.1.26-.01.34-.4.83-.77,1.13-1.14.78-2.46,1.8-3.48,2.6l-1.35.89s-.04.03-.06.06l-.3.44c-.06.08-.04.19.03.26.04.03.09.05.13.05.05,0,.09-.02.13-.05.03-.02,2.93-2.42,5.13-3.93.42-.29.76-.33.94-.12.23.28-.2.82-.36.98l-.82.73c-.24.14-.44.33-.56.46-.08.09-.29.27-.58.5,0,0-.02.01-.02.02-.08.06-.16.13-.24.2-.55.41-1.88,1.35-2.75,1.95-.03.02-.05.04-.06.07l-.19.35s0,0,0,.01c-.24.25-.49.6-.49,1.01,0,.11.09.2.2.2s.2-.09.2-.2c0-.35.28-.66.5-.85.42-.32,1.89-1.45,2.87-2.25.12-.09.21-.16.25-.2.04-.03.08-.07.12-.1.03,0,.06-.02.09-.04l.91-.8c.12-.06.23-.11.32-.11.11,0,.19.03.27.11.06.05.08.13.08.24-.02.29-.29.77-.87,1.21Z"/>
              <path class="cls-28" d="M76.05,74.39c-.29.72-3.23,3.35-3.94,3.7-.13-.45-.45-2.02-.73-3.42-1.15-5.7-1.29-5.98-1.57-6.02-.08-.01-.15.01-.21.07-.09.09-.13.28-.11.69h0s0,0,0,0c0,.15.02.33.05.54.34,4.11.35,8.37-.2,8.74-.39.29-.85.67-1.14,1.26-.22.4-3.52.52-6.18.62-4.43.17-9.44.35-10.93,1.52-2.14,1.68-2.83,2.78-3.01,3.12-.82.09-6.28.55-9.73-3.44.21-.18.63-.55,1.11-1.04.1-.1.19-.2.3-.31.63-.66,1.42-1.49,3.2-2.21.77-.31,1.29-.82,1.79-1.31.33-.32.66-.65,1.08-.94.01,0,.02-.01.04-.02.75-.51,1.75-.87,3.48-.84.11,0,.2-.09.2-.2,0-.11-.09-.2-.2-.2-.72-.01-1.33.04-1.85.15.11-.4.45-.97.77-1.44,1.31-1.22,2.99-2.55,4.62-3.12.66-.23,1.53-.95,2.46-1.71,1.14-.94,2.43-2.01,3.31-2.09.83-.08.97-.69,1.1-1.23.18-.76.36-1.54,2.15-1.63,2.6-.12,4.13-3.08,5.25-5.24.38-.74.71-1.37,1.03-1.82.46-.64,1.03-.95,1.54-1.22.45-.24.84-.45,1.03-.83.55-1.15,1.73-3.11,2.64-3.19.04,0,.1,0,.13.02.02.02.03.05.04.09,0,0,0,0,0,0,.04.17.02.51,0,.86-.08,1.23-.23,3.53,1.22,6.64,2.37,5.1,1.48,9.86,1.28,10.76-.12.52-.05,1.4.02,2.32.07.92.15,1.96-.01,2.37Z"/>
              <path class="cls-25" d="M82.44,47.16c-.09.05-1.52.84-2.72,1.7l-1.86,1.12c-.07.04-.1.11-.1.19,0,.08.06.14.13.17l.45.17s.05.01.07.01c.07,0,.13-.03.17-.09.23-.36.75-.8,1.35-1.23h0s.02-.02.03-.03c1.19-.85,2.64-1.65,2.66-1.66.1-.05.13-.18.08-.27-.05-.1-.18-.13-.27-.08Z"/>
              <path class="cls-29" d="M90.62,43.12l.33-.29c.34-.34.8-1.04.4-1.53-.07-.09-.28-.29-.63-.28.18-.25.31-.53.32-.79,0-.22-.07-.42-.22-.57-.42-.41-.99-.2-1.6.23,0-.05.02-.1.02-.16,0-.19-.08-.35-.22-.48-.56-.51-1.22-.05-1.71.28l-.32.22c-2.32,1.6-3.88,2.6-4.65,2.99-.24.12-.42.25-.58.39-.45.42-1.29.93-1.98,1.34-.25.15-.48.29-.66.4,0-.31-.03-.56-.07-.78-.02-.1-.03-.18-.04-.3,1.03-.84,1.47-1.95,1.44-2.66-.01-.37-.15-.66-.37-.82-.47-.34-.88.21-1.34.84-.38.51-.85,1.15-1.47,1.55-.33.22-.68.72-.76,1.1l-.29,1.4c-.1.47-.16.7-.47,1.02-.52.54-.84,1.11-1.06,1.69h0s0,0,0,0c-.19.51-.31,1.01-.41,1.49-.13.59-.26,1.14-.52,1.59-.1-.08-.23-.12-.39-.1-1.28.1-2.59,2.64-2.97,3.41-.13.27-.45.44-.86.65-.52.28-1.17.62-1.68,1.34-.34.47-.67,1.12-1.06,1.87-1.13,2.19-2.54,4.91-4.91,5.02-2.1.1-2.34,1.16-2.53,1.94-.13.58-.23.88-.74.93-1,.09-2.29,1.15-3.53,2.18-.89.74-1.74,1.44-2.33,1.64-3.38,1.18-6.83,5.33-7.16,5.73-.44.3-.79.65-1.13.98-.5.49-.96.95-1.66,1.23-1.86.75-2.68,1.61-3.34,2.3-.1.11-.2.21-.29.3-.69.69-1.23,1.14-1.24,1.14l-.16.13.13.16c2.74,3.32,6.8,3.8,8.92,3.8.85,0,1.39-.08,1.41-.08l.11-.02.04-.1s.5-1.14,2.94-3.07c1.38-1.09,6.54-1.28,10.69-1.43,4.43-.17,6.26-.29,6.52-.85.24-.5.62-.83.98-1.09.03-.02.06-.04.09-.07.05-.04.1-.07.15-.1.36-.25.64-.45.7-.74.02-.09.05-.19.07-.3.13-.49,1.17.5,1.28.63.03.04.11.1.25.07.69-.13,4.01-3.17,4.34-3.98.2-.49.12-1.49.04-2.55-.07-.85-.13-1.73-.03-2.2.05-.22.14-.68.22-1.31,1.12-4.5-.06-10.14-.22-10.87.68-1.21,1.61-2.78,2.52-4.04.49,0,.97-.08,1.39-.28.53-.26,1.01-.48,1.44-.68,1.22-.56,2.1-.97,2.88-1.62.42-.35.74-.74.95-1.18.61-1.23,3.89-3.98,4.51-4.45.61-.46,1.01-1.03,1.03-1.51.01-.22-.06-.41-.21-.55-.1-.09-.21-.15-.33-.18ZM76.05,74.39c-.29.72-3.23,3.35-3.94,3.7-.13-.45-.45-2.02-.73-3.42-1.15-5.7-1.29-5.98-1.57-6.02-.08-.01-.15.01-.21.07-.09.09-.13.28-.11.69h0s0,0,0,0c0,.15.02.33.05.54.34,4.11.35,8.37-.2,8.74-.39.29-.85.67-1.14,1.26-.22.4-3.52.52-6.18.62-4.43.17-9.44.35-10.93,1.52-2.14,1.68-2.83,2.78-3.01,3.12-.82.09-6.28.55-9.73-3.44.21-.18.63-.55,1.11-1.04.1-.1.19-.2.3-.31.63-.66,1.42-1.49,3.2-2.21.77-.31,1.29-.82,1.79-1.31.33-.32.66-.65,1.08-.94.01,0,.02-.01.04-.02.75-.51,1.75-.87,3.48-.84.11,0,.2-.09.2-.2,0-.11-.09-.2-.2-.2-.72-.01-1.33.04-1.85.15.11-.4.45-.97.77-1.44,1.31-1.22,2.99-2.55,4.62-3.12.66-.23,1.53-.95,2.46-1.71,1.14-.94,2.43-2.01,3.31-2.09.83-.08.97-.69,1.1-1.23.18-.76.36-1.54,2.15-1.63,2.6-.12,4.13-3.08,5.25-5.24.38-.74.71-1.37,1.03-1.82.46-.64,1.03-.95,1.54-1.22.45-.24.84-.45,1.03-.83.55-1.15,1.73-3.11,2.64-3.19.04,0,.1,0,.13.02.02.02.03.05.04.09,0,0,0,0,0,0,.04.17.02.51,0,.86-.08,1.23-.23,3.53,1.22,6.64,2.37,5.1,1.48,9.86,1.28,10.76-.12.52-.05,1.4.02,2.32.07.92.15,1.96-.01,2.37ZM76.71,64.88c-.13-1.61-.49-3.48-1.29-5.42.09-.18.35-.66.71-1.31.22,1.11.68,3.84.58,6.73ZM89.88,45.04c-.38.29-3.94,3.2-4.63,4.59-.19.38-.47.73-.85,1.05-.74.62-1.6,1.02-2.79,1.56-.44.2-.92.42-1.45.68-.87.43-2.13.19-3.08,0-.12-.03-.2-.04-.23-.05h0c-.08-.02-.17-.03-.24-.05-.11-.02-.21.05-.23.16-.02.11.05.21.16.23.13.02.26.05.41.08,0,0,.01,0,.02,0,.4.09,1.07.32,1.19.69-.57.84-1.12,1.76-1.61,2.59-.59.61-1.34,1.33-1.66,1.62-.92-2.19-1.02-3.89-.98-5.1.03-.03.04-.07.05-.11.05-.8,1.08-4.83,1.11-4.97.2-.53.49-1.04.96-1.52.38-.39.47-.72.57-1.22l.29-1.4c.06-.28.34-.69.59-.85.68-.44,1.18-1.11,1.57-1.65.33-.44.64-.86.79-.75.12.09.19.27.2.51.02.6-.38,1.59-1.29,2.34-.11.09-.17.23-.15.38.01.1.03.19.05.3.05.28.11.59.03,1.02h0s0,.09,0,.09c0,0-.02.42-.24,1.2-.02.07-.04.15-.06.22-.09.3-.21.66-.36,1.06-.04.1.01.22.12.26.02,0,.05.01.07.01.08,0,.16-.05.19-.13.15-.4.27-.75.36-1.06,0,0,0,0,0,0,0-.02.01-.05.02-.07.02-.06.04-.13.05-.18.37-1.1,1.47-1.94,1.53-1.99.61-.37,1.27-.79,1.67-1.16.13-.12.28-.22.49-.33.78-.4,2.36-1.41,4.69-3.02l.32-.22c.52-.36.91-.59,1.21-.31.06.05.08.11.08.19,0,.3-.38.75-.51.88,0,0,0,0,0,0-.34.26-1.31.96-2.27,1.65-.16.09-2.29,1.32-2.53,1.46-.18.11-.19.24-.18.31.03.19.25.26.36.28.01,0,.03,0,.04,0,.1,0,.38-.19,2.44-1.67,2.34-1.67,2.48-1.8,2.53-1.84.97-.87,1.55-1.15,1.83-.88.07.07.11.16.1.26-.01.34-.4.83-.77,1.13-1.14.78-2.46,1.8-3.48,2.6l-1.35.89s-.04.03-.06.06l-.3.44c-.06.08-.04.19.03.26.04.03.09.05.13.05.05,0,.09-.02.13-.05.03-.02,2.93-2.42,5.13-3.93.42-.29.76-.33.94-.12.23.28-.2.82-.36.98l-.82.73c-.24.14-.44.33-.56.46-.08.09-.29.27-.58.5,0,0-.02.01-.02.02-.08.06-.16.13-.24.2-.55.41-1.88,1.35-2.75,1.95-.03.02-.05.04-.06.07l-.19.35s0,0,0,.01c-.24.25-.49.6-.49,1.01,0,.11.09.2.2.2s.2-.09.2-.2c0-.35.28-.66.5-.85.42-.32,1.89-1.45,2.87-2.25.12-.09.21-.16.25-.2.04-.03.08-.07.12-.1.03,0,.06-.02.09-.04l.91-.8c.12-.06.23-.11.32-.11.11,0,.19.03.27.11.06.05.08.13.08.24-.02.29-.29.77-.87,1.21Z"/>
              <path class="cls-9" d="M76.71,64.88c-.13-1.61-.49-3.48-1.29-5.42.09-.18.35-.66.71-1.31.22,1.11.68,3.84.58,6.73Z"/>
            </g>
            <g>
              <path class="cls-4" d="M72.96,79.25l-.21-.15c-.4-.28-.86-.61-.96-.87-.5-1.31-3.11-3.88-7.07-5.97,0,0,0,0-.01,0-.01,0-.02,0-.03-.01-1.74-.91-3.74-1.73-5.93-2.31-1.39-1.88-3.76-4.35-7.81-7.09-.04-.04-4.48-4.48-9.28-9.69-.12-.57-1.07-5.04-1.91-7.14-.13-.38-.81-2.28-1.38-2.56-.49-.23-.87-.71-1.2-1.13-.43-.55-.84-1.07-1.4-.79-.13.06-.29.22-.33.59-.1.81.38,2.18,1.32,2.98.04.03.06.07.07.11.01.1.04.23.09.38-.34-.36-.76-.76-1.26-1.14-1.41-1.06-3.04-2.56-3.51-2.99-.06-.05-.1-.11-.15-.17-.26-.39-1.58-2.33-2.35-2.37-.15,0-.28.05-.37.16-.15.19-.21.4-.2.62-.35-.39-.78-.78-1.13-.81-.15-.01-.28.03-.38.13-.32.31-.33.96-.1,1.56-.01,0-.02,0-.03,0h0c-.12,0-.23.06-.31.17-.41.58-.24,1.32.51,2.28.02.02.04.05.06.07-.12,0-.21.06-.28.15-.48.63.56,2.03,1.77,3.65.35.46.7.94,1.01,1.38.43.62.71,1.27.98,1.91.33.76.64,1.48,1.17,2.01.25.25,1.78,1.85,2.54,2.67,0,0,0,.01.01.02,0,0,0,0,.02.01.04.04.07.08.11.12.35.38,1,.84,2.18.9.05,0,.11.02.18.04.02,0,.04,0,.06.01.05.29.23.97.8,1.36.21.15.38.32.49.52.82,1.43,4.98,8.65,6.12,10.41,1.36,2.1,4.69,5.82,7.17,7.05,1,.5,2.16,1.46,3.18,2.3.35.29.67.55.98.8,0,0,0,0,0,0,.59.47,1.1.83,1.51.97.02,0,.05.01.07.01,0,0,0,0,0,0,.03.02.06.04.08.05.32.14.63.37.99.64.85.63,1.91,1.42,3.8,1.56,1.67.13,1.98.46,2.58,1.13.32.35.71.78,1.4,1.29l.07.03s.34.08.85.06c1.1-.04,3.15-.52,5.58-2.99.26-.26.39-.62.35-.99-.03-.37-.22-.7-.52-.91Z"/>
              <path class="cls-29" d="M72.96,79.25l-.21-.15c-.4-.28-.86-.61-.96-.87-.5-1.31-3.11-3.88-7.07-5.97,0,0,0,0-.01,0-.01,0-.02,0-.03-.01-1.74-.91-3.74-1.73-5.93-2.31-1.39-1.88-3.76-4.35-7.81-7.09-.04-.04-4.48-4.48-9.28-9.69-.12-.57-1.07-5.04-1.91-7.14-.13-.38-.81-2.28-1.38-2.56-.49-.23-.87-.71-1.2-1.13-.43-.55-.84-1.07-1.4-.79-.13.06-.29.22-.33.59-.1.81.38,2.18,1.32,2.98.04.03.06.07.07.11.01.1.04.23.09.38-.34-.36-.76-.76-1.26-1.14-1.41-1.06-3.04-2.56-3.51-2.99-.06-.05-.1-.11-.15-.17-.26-.39-1.58-2.33-2.35-2.37-.15,0-.28.05-.37.16-.15.19-.21.4-.2.62-.35-.39-.78-.78-1.13-.81-.15-.01-.28.03-.38.13-.32.31-.33.96-.1,1.56-.01,0-.02,0-.03,0h0c-.12,0-.23.06-.31.17-.41.58-.24,1.32.51,2.28.02.02.04.05.06.07-.12,0-.21.06-.28.15-.48.63.56,2.03,1.77,3.65.35.46.7.94,1.01,1.38.43.62.71,1.27.98,1.91.33.76.64,1.48,1.17,2.01.25.25,1.78,1.85,2.54,2.67,0,0,0,.01.01.02,0,0,0,0,.02.01.04.04.07.08.11.12.35.38,1,.84,2.18.9.05,0,.11.02.18.04.02,0,.04,0,.06.01.05.29.23.97.8,1.36.21.15.38.32.49.52.82,1.43,4.98,8.65,6.12,10.41,1.36,2.1,4.69,5.82,7.17,7.05,1,.5,2.16,1.46,3.18,2.3.35.29.67.55.98.8,0,0,0,0,0,0,.59.47,1.1.83,1.51.97.02,0,.05.01.07.01,0,0,0,0,0,0,.03.02.06.04.08.05.32.14.63.37.99.64.85.63,1.91,1.42,3.8,1.56,1.67.13,1.98.46,2.58,1.13.32.35.71.78,1.4,1.29l.07.03s.34.08.85.06c1.1-.04,3.15-.52,5.58-2.99.26-.26.39-.62.35-.99-.03-.37-.22-.7-.52-.91ZM72.84,80.87c-3.17,3.23-5.68,2.89-6.01,2.83-.64-.48-1.01-.88-1.31-1.21-.64-.7-1.02-1.12-2.85-1.26-1.78-.13-2.79-.88-3.6-1.48-.37-.27-.71-.53-1.07-.68-.38-.16-1.16-1.08-1.88-2-.34-.56-.79-1.07-.88-1.17-.16-.22-.3-.42-.41-.57-.06-.09-.19-.11-.28-.05-.09.06-.11.19-.05.28.12.17.66.94,1.3,1.75.1.17.19.33.24.47-.19-.16-.39-.32-.59-.48-1.04-.86-2.22-1.83-3.26-2.35-2.42-1.2-5.68-4.85-7.01-6.91-1.13-1.75-5.28-8.96-6.1-10.39-.13-.23-.32-.43-.55-.6l-.12-.37c-.06-.27-.05-.5.03-.69.01-.03.03-.06.05-.08.14-.07.28-.19.41-.36h0s.02-.04.02-.05c0,0,0-.01,0-.02,0,0,0-.02,0-.03,0-.02,0-.04,0-.05h0s0-.02,0-.03c0-.02,0-.03-.02-.05,0-.01-.02-.02-.02-.03,0,0-.01-.02-.03-.03h0s-.04-.02-.06-.03c0,0,0,0,0,0-.01,0-.03,0-.05,0-.01,0-.02,0-.03,0h0c-2.15.37-3.34-.49-3.52-.63-.76-.82-2.31-2.44-2.56-2.69-.47-.47-.77-1.16-1.08-1.88-.28-.65-.57-1.32-1.02-1.98-.31-.45-.67-.93-1.02-1.4-.88-1.17-2.08-2.77-1.78-3.16.07-.02.32.12.54.33.02.02.04.03.05.03.34.41.63.8.75,1.13.04.1.08.18.14.25l.85,1.03c.04.06.64.96.91,1.43.04.06.11.1.18.1.02,0,.04,0,.06-.01.09-.04.14-.13.12-.23l-.09-.44s0,0,0,0c0-.03-.02-.06-.04-.08l-.84-1.01h0s-.86-1.04-.86-1.04c-.03-.03-.05-.07-.07-.13-.17-.47-.6-.99-1.06-1.54-.15-.18-.3-.36-.44-.54-.93-1.19-.61-1.65-.51-1.8,0,0,0,0,0,0,.08,0,.29.16.47.36,0,0,0,.01.01.02l.05.06s.01.01.02.02c0,0,0,0,0,0l.1.11c.46.49,1.1,1.17,1.37,1.74.09.19.17.33.28.45l.7.81c.23.31,1.4,1.94,1.66,2.37.04.06.11.1.18.1.02,0,.03,0,.05,0,.09-.03.15-.11.14-.2l-.02-.42s0,0,0-.02c0-.06,0-.11-.04-.16l-1.44-1.68-.25-.3s-.02-.01-.02-.02l-.65-.75c-.08-.09-.14-.2-.22-.35-.29-.63-.95-1.33-1.44-1.85l-.1-.11s-.07-.08-.11-.13c-.5-.58-.62-1.46-.34-1.72.01-.01.03-.02.06-.02.35.04,1.09.89,1.51,1.49.02.03.06.05.09.07.19.29.4.54.52.66.11.12.25.36.4.61.15.26.31.52.46.69l.59.65c.08.09,1.34,1.58,1.61,2.04.04.06.11.1.18.1.02,0,.03,0,.05,0,.09-.03.15-.11.14-.2v-.28s-.02-.02-.02-.04c0,0,0-.02,0-.03,0-.02-.02-.05-.04-.06l-1.62-1.79h0s-.58-.64-.58-.64c-.12-.14-.27-.39-.41-.63-.16-.27-.31-.53-.45-.67-.56-.61-1.08-1.47-.73-1.91,0-.01.02-.02.04-.02.34.02,1.22.96,2.03,2.19.06.09.13.17.21.25.47.44,2.12,1.94,3.54,3.01.14.1.27.21.4.32.13.14,1.36,1.45,1.58,2.26-.1.4-.12.99-.14,1.65h.4c.01-.55.04-1.47.2-1.78.27-.51.14-.79-.01-.94-.45-.41-.58-.89-.61-1.14-.02-.14-.09-.26-.2-.36-.88-.75-1.25-2.01-1.18-2.63.02-.17.07-.26.11-.28.24-.12.46.11.9.68.36.46.76.97,1.34,1.25.31.15.88,1.45,1.18,2.33.29.73.6,1.76.88,2.81.03.16.74,3.82.61,4.87-.01.09.04.18.13.21.03,0,.05.01.08.01.06,0,.12-.03.16-.09l.27-.39c4.75,5.15,9.11,9.51,9.19,9.58,8.45,5.72,9.55,10.38,9.56,10.42.02.1.11.16.2.16.01,0,.02,0,.03,0,.11-.02.18-.13.15-.24-.02-.08-.23-1.01-1.16-2.49.79.13,2.59.53,5.07,1.63,0,0,.01,0,.02,0,3.85,2.03,6.37,4.5,6.85,5.75.14.38.63.72,1.1,1.06l.21.15c.2.15.33.37.35.62s-.07.5-.24.67Z"/>
              <path class="cls-7" d="M56.55,73.24s0,0,0,0c-1.23-1.24-1.15-2.17-1.13-2.31.03-.14.06-.22.06-.23.04-.1-.01-.22-.12-.26-.1-.04-.22.01-.26.11-.01.04-.25.67-.11,1.39-.24-.02-.52,0-.8.15,0,0,0,0,0,0-.01,0-.03.02-.04.03,0,0-.01.01-.02.02,0,.01-.01.02-.02.03,0,.01-.01.02-.02.04,0,0,0,0,0,.01,0,0,0,.02,0,.03,0,.01,0,.03,0,.04,0,.01,0,.03.01.04,0,0,0,.02,0,.03,0,0,0,0,0,0,0,.01.02.02.03.03,0,0,.02.02.03.03,0,0,.02.01.03.02.01,0,.03.01.04.02,0,0,0,0,0,0,.02,0,1.62.34,2.52,1.64.04.06.11.09.17.09.04,0,.07-.01.11-.04.09-.06.11-.19.05-.28-.17-.25-.36-.46-.56-.64Z"/>
              <path class="cls-25" d="M36.25,50.9c-.07-.1-.14-.19-.21-.29-.65-.98-.67-.89-.63-1.22.01-.1.17-.18.2-.24.16-.19.3-.38.43-.56.06-.09.04-.22-.05-.28-.09-.06-.22-.04-.28.05-.08.11-.16.23-.26.34-.03.03-.1.09-.16.2-.1.12-.21.24-.31.36-.41-.48-.72-.82-.75-.86-.07-.08-.2-.09-.28-.01-.08.07-.09.2-.01.28,0,0,.34.37.77.89-.41.43-.76.76-.76.77-.08.08-.09.2,0,.28.04.04.1.07.15.06.05,0,.09-.02.13-.05.03-.02.35-.33.75-.75.2.24.41.5.61.77.05.07.1.14.16.21h0c.06.08.12.17.18.25,0,.01.01.02.02.03h0c.43.61.79,1.2.89,1.61.02.09.11.16.2.15l.48-.02c.08,0,.14-.05.18-.12s.02-.15-.03-.21l-1.4-1.66Z"/>
            </g>
          </g>
          <g>
            <g class="cls-34">
              <path class="cls-14" d="M72.29,60.61c-9.13.57-18.28.57-27.4,0,1.82-3.49,3.64-6.99,5.46-10.48,5.49.35,11,.35,16.49,0,1.82,3.49,3.64,6.99,5.46,10.48Z"/>
              <path class="cls-6" d="M69.37,57.27l-3.41-11.22-.48.11-.03-.11-6.87,1.6-6.87-1.6-.03.11-.48-.11-3.41,11.22c.07,0,.15,0,.25,0,.09,0,.18,0,.26,0l-.19.61h.18s.15.01.38.01v1.62h.14s.21.01.55.01c1.17,0,4.02-.08,6.65-.76,1.34-.35,2.32-1.47,2.51-2.81l.06-.04.06.04c.19,1.34,1.17,2.46,2.51,2.81,2.64.68,5.48.76,6.65.76.34,0,.54,0,.55,0h.14v-1.62c.23,0,.37,0,.38,0h.18s-.19-.62-.19-.62c.09,0,.18,0,.26,0,.1,0,.18,0,.25,0Z"/>
            </g>
            <path class="cls-29" d="M58.59,61.18c-4.13,0-8.26-.12-12.37-.35-.34-.02-.65-.21-.82-.51s-.18-.66-.02-.97l4.28-8.21c.36-.7,1.1-1.12,1.9-1.08,4.67.25,9.39.25,14.06,0,.79-.04,1.54.38,1.9,1.08l4.28,8.21c.16.31.15.67-.02.97s-.48.49-.82.51h0c-4.1.23-8.23.35-12.37.35ZM51.45,50.34c-.65,0-1.25.36-1.55.93l-4.28,8.21c-.12.22-.11.48.01.7.12.22.34.35.59.37,8.2.46,16.51.46,24.7,0h0c.25-.01.47-.15.59-.37.12-.22.13-.48.01-.7l-4.28-8.21c-.31-.6-.97-.97-1.64-.93-4.67.25-9.41.25-14.09,0-.03,0-.06,0-.09,0Z"/>
            <g>
              <g>
                <path class="cls-29" d="M52.12,46.85l-3.39,11.13h.17s.14.01.36.01v1.52h.13s.19.01.51.01c1.1,0,3.78-.07,6.26-.72,1.26-.33,2.18-1.38,2.36-2.65l.06-.03v-7.77l-6.47-1.51ZM56.1,58.55c-2.82.73-5.91.72-6.57.71v-1.27c1.59,0,5.86-.18,8.7-1.67-.23,1.07-1.04,1.94-2.13,2.23ZM58.3,55.71c0,.1,0,.19-.02.28-3.11,1.73-8.19,1.74-9.2,1.73l3.21-10.56,6.02,1.4v2.12l-.02,5.03Z"/>
                <g class="cls-19">
                  <path class="cls-2" d="M58.3,55.71c0,.1,0,.19-.02.28-3.11,1.73-8.19,1.74-9.2,1.73l3.21-10.56,6.02,1.4v2.12l-.02,5.03Z"/>
                  <path class="cls-23" d="M48.66,57.41c-.09,0-.17,0-.23,0l3.21-10.56,6.02,1.4s0,.07,0,.2c-.02,4.96-4.04,8.98-9,8.96Z"/>
                </g>
                <g class="cls-30">
                  <path class="cls-1" d="M56.1,58.55c-2.82.73-5.91.72-6.57.71v-1.27c1.59,0,5.86-.18,8.7-1.67-.23,1.07-1.04,1.94-2.13,2.23Z"/>
                  <path class="cls-3" d="M55.88,58.01c-2.82.73-5.91.72-6.57.71v-1.27c1.59,0,5.86-.18,8.7-1.67-.23,1.07-1.04,1.94-2.13,2.23Z"/>
                </g>
              </g>
              <g>
                <path class="cls-29" d="M58.59,48.35v7.77s.06.03.06.03c.18,1.26,1.1,2.32,2.36,2.65,2.48.64,5.16.72,6.26.72.32,0,.51,0,.51,0h.13v-1.53c.22,0,.35,0,.36,0h.17s-3.39-11.14-3.39-11.14l-6.47,1.51ZM58.94,56.33c2.84,1.49,7.11,1.66,8.7,1.67v1.27c-.66.01-3.75.03-6.57-.71-1.09-.28-1.9-1.16-2.13-2.23ZM58.85,50.69v-2.12s6.02-1.4,6.02-1.4l3.21,10.56c-1,.02-6.09,0-9.2-1.73,0-.09-.02-.19-.02-.28l-.02-5.03Z"/>
                <g class="cls-24">
                  <path class="cls-2" d="M58.85,50.69v-2.12s6.02-1.4,6.02-1.4l3.21,10.56c-1,.02-6.09,0-9.2-1.73,0-.09-.02-.19-.02-.28l-.02-5.03Z"/>
                  <path class="cls-23" d="M59.52,48.45c0-.13,0-.2,0-.2l6.02-1.4,3.21,10.56c-.06,0-.14,0-.23,0-4.96.02-8.98-4.01-9-8.96Z"/>
                </g>
                <g class="cls-5">
                  <path class="cls-1" d="M58.94,56.33c2.84,1.49,7.11,1.66,8.7,1.67v1.27c-.66.01-3.75.03-6.57-.71-1.09-.28-1.9-1.16-2.13-2.23Z"/>
                  <path class="cls-3" d="M59.16,55.79c2.84,1.49,7.11,1.66,8.7,1.67v1.27c-.66.01-3.75.03-6.57-.71-1.09-.28-1.9-1.16-2.13-2.23Z"/>
                </g>
              </g>
            </g>
            <path class="cls-31" d="M54.58,43.97h8c.06,0,.1.04.1.1v.36c0,.14-.11.25-.25.25h-7.7c-.14,0-.25-.11-.25-.25v-.36c0-.06.04-.1.1-.1Z"/>
            <g class="cls-22">
              <path class="cls-33" d="M62.02,44.68c.08,0,.11.11.03.14-.42.22-.7.65-.7,1.15v1.24c0,.09.07.16.16.16h0c.16,0,.28.13.28.28v.53l-.53.81-2.05,9.05c-.12.55-.91.55-1.03,0l-2.05-9.05-.53-.81v-.53c0-.16.13-.28.28-.28h0c.09,0,.16-.07.16-.16v-1.24c0-.5-.29-.94-.7-1.15-.07-.04-.05-.14.03-.14h6.64Z"/>
              <path class="cls-15" d="M55.09,44.32c.1.2,4.73,13.43,4.73,13.43l2.78-13-7.51-.43Z"/>
              <polygon class="cls-8" points="63.2 44.68 54.87 49.35 54.48 44.68 63.2 44.68"/>
            </g>
            <path class="cls-29" d="M58.59,58.59c-.32,0-.58-.21-.65-.52l-2.05-9.02-.54-.83v-.57c0-.23.19-.42.42-.42.02,0,.03-.01.03-.03v-1.24c0-.44-.24-.83-.63-1.03-.09-.04-.13-.14-.11-.24.02-.1.11-.16.21-.16h6.64c.1,0,.18.06.21.16.02.09-.02.19-.11.24-.39.2-.63.6-.63,1.03v1.24s.01.03.03.03c.23,0,.42.19.42.42v.57l-.54.83-2.05,9.02c-.07.31-.33.52-.65.52ZM55.62,48.15l.52.82,2.05,9.05c.05.23.24.31.39.31s.33-.08.39-.31l2.07-9.09.51-.78v-.49c0-.08-.07-.15-.15-.15-.17,0-.3-.13-.3-.3v-1.24c0-.47.22-.89.59-1.16h-6.22c.37.27.59.7.59,1.16v1.24c0,.17-.13.3-.3.3-.08,0-.15.07-.15.15v.49Z"/>
            <g>
              <path class="cls-31" d="M54.58,43.97h8c.06,0,.1.04.1.1v.36c0,.14-.11.25-.25.25h-7.7c-.14,0-.25-.11-.25-.25v-.36c0-.06.04-.1.1-.1Z"/>
              <path class="cls-29" d="M62.44,44.81h-7.7c-.21,0-.39-.17-.39-.39v-.36c0-.13.11-.24.24-.24h8c.13,0,.24.11.24.24v.36c0,.21-.17.39-.39.39ZM54.62,44.1v.32c0,.06.05.12.12.12h7.7c.06,0,.12-.05.12-.12v-.32h-7.93Z"/>
            </g>
            <path class="cls-27" d="M58.09,43.15s-1.09-.47-1.17-2.26c-.03-.81.17-1.7,1.17-2.68,0,0-1.08,2.99.42,3.56.8.3,1.38-.23,1.38-.23,0,0,.44,1.06-.66,1.52,0,0,2.39-.24,2.81-3.05,0,0-1.19,1.35-2.27.6-1.35-.94,1.33-2.35.6-6.22-.36-1.89-1.49-4.38-1.49-4.38,0,0,.74,3.13-.3,5.46-.91,2.03-2.72,2.9-2.6,5.29.11,2.29,2.11,2.39,2.11,2.39Z"/>
            <path class="cls-20" d="M61.09,35.19s.61,2.64-1.02,4.59c0,0,2.29.02,1.02-4.59Z"/>
            <path class="cls-16" d="M57.41,34.88s-1.32.32-2.03,2.84c-.55,1.96.47,4.28.47,4.28-1.09-4.78,2.15-4.3,1.56-7.12Z"/>
            <path class="cls-32" d="M57.45,35.13c-.28,1.51-2,1.9-1.8,4.71.21-2.43,2.12-2.62,1.8-4.71Z"/>
            <path class="cls-18" d="M62.02,40.06s-.26.29-.64.53c-.32,1.45-1.18,2.14-1.86,2.46.66-.17,2.17-.8,2.5-2.99Z"/>
            <path class="cls-26" d="M56.27,40.34c-.05-1,.24-1.74.66-2.41-.57.79-1.01,1.61-.95,2.83.11,2.29,2.11,2.39,2.11,2.39,0,0-.45-.2-.79-.81-.49-.32-.98-.91-1.03-2.01Z"/>
          </g>
          <g>
            <path class="cls-14" d="M15.72,27.1l4.7,3.02c.53.34.92.75,1.17,1.23.24.48.33.99.26,1.55-.07.56-.29,1.12-.66,1.7-.56.88-1.23,1.42-2.01,1.63-.78.21-1.56.07-2.36-.43l-4.74-3.05,1.12-1.74,4.77,3.07c.8.49,1.43.37,1.88-.34.23-.36.31-.69.23-1-.08-.31-.34-.61-.78-.9l-4.69-3.02,1.11-1.73Z"/>
            <path class="cls-14" d="M30.06,24.19l-1.47,1.43-5.88-1.69,3.71,3.8-1.47,1.44-5.97-6.11,1.47-1.44,5.88,1.69-3.71-3.8,1.47-1.43,5.97,6.11Z"/>
            <path class="cls-14" d="M34.6,21.01l-1.7,1.15-4.78-7.08,1.7-1.15,4.78,7.08Z"/>
            <path class="cls-14" d="M39.63,15.67l-.98-6.37,2.1-.94.86,8.97-2.06.92-6.09-6.64,2.08-.93,4.08,4.99Z"/>
            <path class="cls-14" d="M51.19,10.82l-3.17.68.43,2,3.74-.8.33,1.55-5.75,1.23-1.79-8.35,5.77-1.23.33,1.55-3.75.8.38,1.76,3.17-.68.32,1.49Z"/>
            <path class="cls-14" d="M58.51,10.9h-1.11s.01,3.03.01,3.03h-2.06s-.03-8.54-.03-8.54h3.36c1.01-.02,1.81.21,2.38.65.57.45.86,1.08.86,1.9,0,.59-.12,1.09-.36,1.48-.24.39-.61.71-1.13.95l1.8,3.44v.09h-2.21s-1.52-3.01-1.52-3.01ZM57.39,9.32h1.3c.39,0,.69-.11.88-.32.2-.21.29-.49.29-.86,0-.37-.1-.66-.3-.87-.2-.21-.49-.31-.88-.31h-1.3s0,2.36,0,2.36Z"/>
            <path class="cls-14" d="M69.94,12.95c.06-.29,0-.55-.17-.76-.17-.21-.5-.46-.99-.74-.49-.29-.88-.55-1.18-.78-.97-.76-1.36-1.61-1.16-2.54.1-.46.32-.84.67-1.14.35-.3.79-.49,1.32-.58.53-.09,1.11-.07,1.73.06.6.13,1.12.35,1.55.66.43.32.74.7.92,1.15.18.45.22.93.11,1.44l-2.01-.43c.07-.34.02-.63-.14-.86-.17-.23-.43-.39-.79-.46-.36-.08-.66-.06-.9.06-.24.11-.39.29-.44.54-.05.21.03.43.22.66.19.22.56.49,1.1.8.54.31.97.61,1.3.9.79.71,1.09,1.53.9,2.44-.16.73-.55,1.25-1.19,1.55-.64.3-1.44.35-2.4.14-.68-.14-1.26-.4-1.76-.76-.5-.36-.84-.78-1.03-1.26-.19-.48-.22-1-.11-1.55l2.02.43c-.1.45-.05.8.14,1.06.19.26.54.45,1.06.56.33.07.61.05.84-.05.22-.1.36-.28.42-.54Z"/>
            <path class="cls-14" d="M76.44,17.5l-1.91-.76,3.17-7.93,1.91.76-3.17,7.93Z"/>
            <path class="cls-14" d="M79.64,18.9l4.5-7.26,2.34,1.45c.64.4,1.13.9,1.46,1.51.33.61.48,1.27.44,1.98-.04.71-.26,1.39-.67,2.05l-.21.33c-.41.67-.92,1.17-1.53,1.53-.61.35-1.26.52-1.95.5-.69-.02-1.36-.22-1.99-.61l-2.39-1.48ZM85.05,14.08l-2.83,4.56.61.38c.5.31,1,.37,1.49.18.49-.19.95-.64,1.39-1.34l.19-.31c.43-.7.63-1.31.58-1.84-.05-.52-.33-.94-.85-1.26l-.59-.36Z"/>
            <path class="cls-14" d="M92.32,26.57l-2.01-1.98-1.47.79-1.57-1.54,8.22-3.9,1.38,1.36-3.73,8.31-1.58-1.55.76-1.49ZM91.77,23.81l1.31,1.29,1.42-2.76-2.73,1.47Z"/>
            <path class="cls-14" d="M94.71,31.69l7.17-4.64,1.5,2.31c.41.63.64,1.3.68,1.99.04.69-.11,1.35-.45,1.97-.34.62-.83,1.15-1.48,1.57l-.33.21c-.66.43-1.34.67-2.04.73-.7.06-1.36-.07-1.98-.38-.62-.31-1.13-.78-1.54-1.4l-1.53-2.36ZM101.66,29.64l-4.51,2.92.39.6c.32.5.74.76,1.27.8.52.04,1.14-.17,1.83-.62l.31-.2c.69-.45,1.13-.92,1.31-1.41.18-.49.1-.99-.23-1.5l-.38-.58Z"/>
          </g>
          <g>
            <path class="cls-14" d="M29.69,79.61l.51.75c-.29.18-.57.29-.83.31-.26.03-.51-.02-.74-.14-.23-.12-.43-.32-.62-.59-.14-.21-.23-.42-.27-.63-.04-.21-.03-.42.03-.62s.17-.41.33-.6c.16-.19.37-.38.63-.56l.64-.43c.26-.18.51-.3.76-.38.24-.08.47-.1.69-.08.21.02.41.09.59.21.18.12.34.28.48.48.19.27.29.54.31.79.02.25-.03.5-.16.73-.13.24-.33.46-.6.67l-.51-.75c.18-.13.3-.24.38-.35.08-.1.11-.21.1-.31,0-.1-.06-.22-.15-.36-.07-.1-.14-.17-.23-.22-.08-.05-.18-.07-.29-.06-.11,0-.23.04-.37.1-.14.06-.3.16-.48.28l-.64.44c-.18.12-.32.23-.43.34s-.19.2-.24.3c-.05.1-.07.19-.06.29s.06.2.13.31c.09.13.18.22.27.27s.2.06.32.04c.12-.03.28-.1.46-.22Z"/>
            <path class="cls-14" d="M34.27,80.52l-3.45,2.95-.59-.69,3.45-2.95.59.69Z"/>
            <path class="cls-14" d="M36.06,82.4l-3.13,3.29-.66-.63,3.13-3.29.66.63ZM34.68,86.3l-.52.55-1.43-1.36.52-.55,1.43,1.36ZM35.83,84.71l-.5.53-1.24-1.18.5-.53,1.24,1.18ZM37.28,83.56l-.52.55-1.43-1.36.52-.55,1.43,1.36Z"/>
            <path class="cls-14" d="M40.96,86.32l-2.6,3.71-.72-.51.46-3.14-1.63,2.32-.71-.5,2.6-3.71.71.5-.47,3.18,1.65-2.35.71.5Z"/>
            <path class="cls-14" d="M42.86,90.89l.8.42c-.17.3-.36.52-.58.67-.22.15-.46.22-.72.22-.26,0-.53-.08-.82-.23-.22-.12-.4-.26-.53-.42-.13-.17-.22-.35-.27-.56-.05-.21-.04-.44,0-.68.05-.25.15-.51.3-.79l.36-.68c.15-.28.31-.51.49-.69.18-.18.37-.31.57-.39s.41-.11.62-.1c.21.02.43.08.65.2.29.15.51.34.65.55.14.21.21.45.2.72,0,.27-.07.56-.21.87l-.81-.42c.09-.19.15-.36.17-.49.02-.13,0-.24-.06-.32-.06-.09-.16-.17-.3-.24-.11-.06-.21-.09-.31-.09-.1,0-.19.02-.29.08s-.19.15-.28.27c-.09.12-.19.28-.29.47l-.36.69c-.1.19-.17.36-.22.5-.05.14-.07.27-.07.38,0,.11.03.2.08.28.06.08.14.15.26.21.14.07.26.11.36.11.1,0,.21-.04.3-.12.1-.08.2-.22.3-.41Z"/>
            <path class="cls-14" d="M47.32,89.53l-1.65,4.22-.85-.33,1.65-4.22.85.33Z"/>
            <path class="cls-14" d="M50.33,91.33l-1.9,3.35-.93-.25,2.53-4.02.58.15-.29.76ZM50.59,93.5l-.19.73-1.98-.52.19-.73,1.98.52ZM50.12,95.13v-3.85l.12-.81.59.16.23,4.75-.94-.25Z"/>
            <path class="cls-14" d="M56.59,91.53l.6,2.07.78-2.01.99.04-1.35,2.83-.07,1.65-.92-.04.07-1.65-1.09-2.94.99.04Z"/>
            <path class="cls-14" d="M65.11,94.38c-.01-.08-.03-.15-.06-.21-.03-.06-.07-.12-.12-.17-.06-.05-.13-.09-.23-.13-.1-.04-.22-.08-.37-.12-.18-.04-.35-.09-.52-.14-.17-.05-.32-.12-.47-.21s-.26-.19-.36-.32c-.1-.13-.16-.29-.19-.48-.03-.19-.02-.37.02-.53.04-.16.12-.31.23-.44.11-.13.25-.24.41-.33s.35-.15.56-.18c.29-.05.55-.03.78.06.23.08.42.22.57.41.15.19.25.42.29.68l-.9.15c-.02-.13-.06-.24-.11-.33-.05-.09-.12-.16-.21-.2s-.19-.05-.32-.03c-.12.02-.21.06-.27.12-.07.06-.11.13-.14.21-.02.08-.03.18-.01.27.01.07.04.14.09.19.05.05.1.1.17.13.07.04.15.07.25.1.09.03.2.06.31.08.22.05.41.11.58.18.17.07.32.16.44.26.12.1.22.22.3.36.08.14.13.3.16.49.03.19.03.36-.01.52-.04.16-.11.31-.22.44-.11.13-.24.24-.4.33-.16.09-.35.15-.57.18-.21.03-.41.04-.6,0-.19-.03-.37-.09-.53-.19-.16-.1-.3-.23-.41-.4s-.19-.39-.23-.64l.9-.15c.02.14.05.25.1.34.04.09.1.16.16.21.06.05.14.08.23.09.09.01.18.01.29,0,.12-.02.21-.06.27-.11.06-.06.1-.13.12-.21.02-.08.02-.17,0-.27Z"/>
            <path class="cls-14" d="M67.81,90.32l1.29,4.35-.88.26-1.29-4.35.88-.26ZM69.42,89.84l.22.73-1.89.56-.22-.73,1.89-.56ZM69.7,91.68l.21.7-1.64.49-.21-.7,1.64-.49ZM70.5,93.46l.21.72-1.89.56-.21-.72,1.89-.56Z"/>
            <path class="cls-14" d="M70.78,89.34l1.33-.59c.28-.12.54-.18.77-.17.24,0,.45.08.64.22.19.14.34.35.46.62.1.22.15.43.16.61,0,.19-.02.36-.08.51-.07.16-.16.3-.29.43l-.19.26-1.08.48-.31-.69.75-.33c.11-.05.2-.12.25-.2s.08-.18.07-.29c0-.11-.03-.22-.09-.35-.06-.13-.12-.24-.2-.31-.07-.08-.16-.13-.25-.15-.09-.02-.2,0-.31.05l-.5.22,1.53,3.45-.84.37-1.84-4.14ZM74.51,92.65l-1.58-1.51.87-.39,1.58,1.46.02.04-.89.4Z"/>
            <path class="cls-14" d="M75.3,87.13l2.61,2.58.63.75-.57.35-3.5-3.17.83-.51ZM77.8,89.77l-1.14-3.49.84-.52,1.27,4.55-.57.35-.4-.89Z"/>
            <path class="cls-14" d="M79.3,84.35l2.8,3.57-.71.56-2.8-3.57.71-.56Z"/>
            <path class="cls-14" d="M84.27,83.92l.65-.64c.23.25.38.5.46.76.07.25.07.5,0,.75-.08.25-.24.48-.47.71-.18.18-.37.3-.57.38-.2.08-.4.1-.62.08s-.43-.09-.65-.22c-.22-.12-.44-.3-.66-.52l-.54-.55c-.22-.23-.39-.45-.51-.68s-.18-.44-.2-.66c-.02-.21.02-.42.1-.62.08-.2.21-.38.39-.56.24-.23.48-.38.72-.45.25-.07.49-.06.75.03s.51.24.77.47l-.65.64c-.16-.15-.29-.25-.41-.31-.12-.06-.23-.07-.33-.05-.1.03-.21.1-.33.21-.09.08-.15.17-.18.26-.03.09-.04.19-.01.3.03.11.08.22.17.35.09.13.21.27.36.42l.54.55c.15.15.29.27.41.37.12.09.23.15.34.19.1.03.2.04.29,0,.09-.03.19-.09.28-.18.11-.11.18-.21.22-.31.04-.1.03-.21-.02-.32-.05-.12-.15-.25-.3-.41Z"/>
            <path class="cls-14" d="M84.35,79.26l3.51,2.87-.58.7-3.51-2.87.58-.7Z"/>
            <path class="cls-14" d="M88.73,76.3l.64.41c.27.17.48.36.64.55s.27.4.32.6c.06.21.07.42.02.63-.04.21-.13.42-.26.63-.13.2-.29.37-.46.49s-.37.2-.59.24c-.21.03-.44.02-.69-.05-.24-.06-.5-.18-.77-.36l-.64-.41c-.27-.18-.49-.37-.66-.57-.16-.2-.28-.4-.34-.62-.06-.21-.07-.42-.03-.64.04-.21.12-.42.26-.63.13-.2.29-.37.47-.49s.38-.2.6-.23c.22-.03.45-.01.7.05.25.07.51.19.79.37ZM88.87,77.48l-.64-.42c-.18-.12-.34-.21-.49-.26s-.28-.09-.39-.09c-.12,0-.22.02-.3.07s-.16.12-.23.22-.1.2-.11.3c-.01.1,0,.2.06.31.05.1.13.21.24.32.11.11.26.22.44.34l.64.41c.17.11.33.2.47.25.14.05.27.08.38.08s.21-.03.3-.08.16-.13.23-.23c.06-.1.1-.2.11-.3.01-.1,0-.2-.05-.3-.05-.1-.12-.21-.23-.31-.11-.11-.25-.22-.42-.33Z"/>
          </g>
          <g>
            <path class="cls-14" d="M23.39,95.27c-.59.46-1.22.74-1.89.83-.67.09-1.35,0-2.02-.31-.67-.3-1.29-.77-1.84-1.42-.92-1.07-1.29-2.21-1.13-3.42.17-1.21.89-2.36,2.15-3.46l.4-.35c.8-.68,1.61-1.15,2.45-1.38.84-.24,1.64-.23,2.41,0,.77.24,1.46.7,2.04,1.39.85.99,1.27,2,1.27,3.05,0,1.05-.43,2-1.27,2.87l-1.68-1.95c.48-.44.73-.87.74-1.29s-.19-.87-.6-1.35c-.42-.49-.91-.69-1.47-.6-.56.09-1.24.47-2.05,1.15l-.57.49c-.87.75-1.39,1.39-1.58,1.93-.18.54-.05,1.07.41,1.6.39.45.79.7,1.21.76.42.06.86-.11,1.34-.49l1.68,1.95Z"/>
            <path class="cls-14" d="M35.91,103.04l-3.48-2.1-1.32,2.19,4.11,2.48-1.03,1.7-6.32-3.82,5.54-9.18,6.33,3.82-1.03,1.71-4.12-2.49-1.17,1.93,3.48,2.1-.99,1.64Z"/>
            <path class="cls-14" d="M48.66,109.25c.09-.37.02-.69-.19-.95-.21-.27-.62-.59-1.22-.96-.6-.37-1.09-.71-1.46-1.01-1.2-.98-1.66-2.05-1.39-3.21.14-.58.42-1.05.87-1.41s1-.59,1.67-.7,1.4-.06,2.16.12c.75.18,1.39.47,1.92.88.53.41.9.9,1.12,1.47.21.57.25,1.18.1,1.81l-2.51-.59c.1-.43.05-.79-.16-1.08-.21-.3-.53-.5-.97-.6-.45-.11-.83-.09-1.13.05-.31.14-.5.36-.57.66-.06.27.02.54.26.83s.69.63,1.35,1.03c.67.4,1.2.79,1.6,1.17.97.91,1.33,1.94,1.06,3.09-.21.91-.73,1.55-1.54,1.91-.81.36-1.82.4-3.01.12-.85-.2-1.58-.53-2.19-1-.62-.46-1.03-1-1.26-1.61-.22-.61-.25-1.26-.09-1.95l2.52.59c-.13.56-.08,1.01.14,1.34.23.33.67.58,1.32.73.42.1.77.09,1.05-.04s.46-.35.54-.67Z"/>
            <path class="cls-14" d="M62.33,102.29l3.38,7.07,1.36-7.71,3.37-.46,1.45,10.62-2.57.35-.34-2.48-.44-5.11-1.54,7.91-1.69.23-3.61-7.21.94,5.05.34,2.48-2.56.35-1.45-10.62,3.36-.46Z"/>
            <path class="cls-14" d="M85.91,103.57l-3.09,1.73.44,2.05-2.41,1.35-1.79-11.28,2.12-1.18,8.68,7.43-2.42,1.35-1.52-1.44ZM82.39,103.25l2.01-1.12-2.82-2.68.81,3.81Z"/>
            <path class="cls-14" d="M101.64,90.31c.07.59-.04,1.26-.34,2.02s-.75,1.48-1.35,2.16c-.92,1.06-1.98,1.62-3.18,1.69-1.2.07-2.39-.38-3.59-1.34l-.7-.6c-.8-.69-1.37-1.44-1.71-2.24-.35-.8-.45-1.6-.32-2.4.14-.8.51-1.55,1.11-2.24.88-1.01,1.79-1.59,2.74-1.74.95-.15,1.92.12,2.91.83l-1.64,1.87c-.51-.33-.96-.46-1.34-.41-.39.05-.76.28-1.11.69-.43.49-.55,1.05-.37,1.67.18.63.66,1.28,1.42,1.95l.49.43c.81.7,1.53,1.09,2.18,1.17.65.08,1.23-.18,1.74-.77.44-.51.66-.98.65-1.43l-1.25-1.09-1.18,1.35-1.34-1.17,2.88-3.3,3.32,2.9Z"/>
          </g>
          <g>
            <path class="cls-14" d="M50.02,22.94v5.97h-1.2v-5.97h1.2ZM50.38,28.91h-1.05v-.99h1.05c.29,0,.52-.05.68-.16s.28-.27.34-.49c.07-.22.1-.52.1-.88v-.93c0-.28-.02-.51-.05-.7-.04-.19-.1-.35-.18-.47-.08-.12-.2-.21-.34-.26-.14-.06-.32-.09-.53-.09h-1.09v-1h1.09c.34,0,.66.06.94.17.28.11.52.28.73.49.2.21.36.48.47.79.11.31.16.67.16,1.07v.92c0,.4-.05.76-.16,1.07-.11.31-.26.57-.47.79-.2.21-.44.38-.73.49s-.6.17-.95.17Z"/>
            <path class="cls-14" d="M55.9,22.94v5.97h-1.19v-5.97h1.19Z"/>
            <path class="cls-14" d="M62.21,25.46v1c0,.42-.05.79-.15,1.1s-.25.58-.43.79c-.19.21-.41.37-.68.48-.26.11-.56.16-.87.16s-.61-.05-.88-.16c-.26-.11-.49-.27-.68-.48s-.34-.48-.44-.79-.16-.68-.16-1.1v-1c0-.43.05-.81.15-1.13.1-.32.25-.59.44-.81.19-.22.42-.38.68-.49.26-.11.55-.17.87-.17s.61.06.87.17.49.27.68.49c.19.22.34.49.44.81s.15.7.15,1.13ZM61.02,26.46v-1c0-.28-.02-.53-.06-.73s-.1-.37-.18-.49c-.08-.13-.18-.22-.3-.28-.12-.06-.25-.09-.41-.09s-.29.03-.41.09c-.12.06-.22.15-.3.28-.08.13-.14.29-.18.49s-.06.44-.06.73v1c0,.27.02.51.06.7.04.19.1.35.18.48.08.12.18.21.3.27.12.06.26.09.41.09s.29-.03.41-.09c.12-.06.22-.15.3-.27.08-.12.14-.28.18-.48.04-.19.06-.43.06-.7Z"/>
            <path class="cls-14" d="M66.7,27.34c0-.11,0-.2-.03-.29-.02-.09-.06-.17-.12-.24-.06-.07-.15-.15-.27-.22-.12-.07-.27-.15-.45-.23-.22-.09-.44-.19-.64-.3s-.39-.23-.56-.37c-.17-.14-.3-.3-.4-.49s-.15-.41-.15-.67.05-.48.14-.68c.09-.21.22-.38.39-.53.17-.15.37-.26.6-.34.23-.08.48-.12.76-.12.38,0,.71.08.99.24s.5.38.65.65c.15.28.23.59.23.95h-1.2c0-.17-.02-.32-.07-.45-.05-.13-.12-.23-.23-.31-.1-.07-.24-.11-.4-.11-.15,0-.28.03-.38.09-.1.06-.17.15-.22.25s-.07.22-.07.35c0,.1.02.19.07.26s.11.15.2.21c.08.06.19.12.3.18.12.06.24.11.38.17.27.11.51.22.72.35s.38.27.52.43c.14.16.24.33.32.53s.11.42.11.67-.04.47-.13.68c-.09.2-.21.38-.38.53-.16.15-.36.26-.59.34s-.49.12-.77.12-.54-.04-.78-.12c-.25-.08-.46-.2-.65-.36-.19-.16-.33-.36-.44-.61-.11-.25-.16-.54-.16-.88h1.2c0,.18.02.33.05.46.04.13.09.23.16.3.07.08.16.13.27.17.11.04.23.06.37.06.16,0,.28-.03.38-.09.09-.06.16-.14.2-.24s.06-.22.06-.34Z"/>
          </g>
        </g>
      </g>
    </g>
  </g>
</svg>